<?xml version="1.0" encoding="utf-8"?>
<!-- Generator: Adobe Illustrator 24.0.0, SVG Export Plug-In . SVG Version: 6.00 Build 0)  -->
<svg version="1.1" id="Layer_1" xmlns="http://www.w3.org/2000/svg" xmlns:xlink="http://www.w3.org/1999/xlink" x="0px" y="0px"
	 viewBox="0 0 256 256" style="enable-background:new 0 0 256 256;" xml:space="preserve">
<style type="text/css">
	.st0{fill:#382B73;}
	.st1{fill:#291B4A;}
	.st2{fill:#ED9ABC;}
	.st3{fill:#E54890;}
	.st4{fill:#D3D3D3;}
	.st5{fill:#EBE7F2;}
	.st6{fill:#F9B087;}
	.st7{fill:#FF8639;}
	.st8{fill:#65C1D6;}
	.st9{fill:#149CB2;}
</style>
<g>
	<g>
		<g>
			<g>
				<g>
					
						<ellipse transform="matrix(0.7071 -0.7071 0.7071 0.7071 -53.0193 128)" class="st0" cx="128" cy="128" rx="119.4" ry="119.4"/>
				</g>
			</g>
		</g>
	</g>
	<g>
		<g>
			<g>
				<g>
					<path class="st1" d="M172.253,159.062c1.381,0,2.5-1.119,2.5-2.5s-1.119-2.5-2.5-2.5h-12.979c-1.381,0-2.5,1.119-2.5,2.5
						s1.119,2.5,2.5,2.5H172.253z"/>
				</g>
			</g>
		</g>
		<g>
			<g>
				<g>
					<path class="st1" d="M185.23,172.57c1.381,0,2.5-1.119,2.5-2.5s-1.119-2.5-2.5-2.5h-25.956c-1.381,0-2.5,1.119-2.5,2.5
						s1.119,2.5,2.5,2.5H185.23z"/>
				</g>
			</g>
		</g>
		<g>
			<g>
				<g>
					<path class="st1" d="M185.23,186.077c1.381,0,2.5-1.119,2.5-2.5s-1.119-2.5-2.5-2.5h-25.956c-1.381,0-2.5,1.119-2.5,2.5
						s1.119,2.5,2.5,2.5H185.23z"/>
				</g>
			</g>
		</g>
		<g>
			<g>
				<g>
					<path class="st1" d="M122.562,63.368H55.376c-1.381,0-2.5,1.119-2.5,2.5v132.409c0,1.381,1.119,2.5,2.5,2.5h67.186
						c1.381,0,2.5-1.119,2.5-2.5V96.988h15.533v0.527c0,2.356,1.593,4.415,3.877,5.006l4.928,1.27l-2.588,4.385
						c-1.195,2.03-0.866,4.612,0.8,6.279l4.281,4.281c1.664,1.666,4.247,1.996,6.28,0.798l4.383-2.587l1.271,4.931
						c0.59,2.282,2.648,3.875,5.005,3.875h0.527v13.61h-19.897c-4.365,0-7.916,3.551-7.916,7.916v45.583
						c0,4.365,3.551,7.916,7.916,7.916h45.582c4.365,0,7.916-3.551,7.916-7.916v-45.583c0-4.365-3.551-7.916-7.916-7.916h-20.685
						v-13.61h0.527c2.354,0,4.413-1.593,5.006-3.877l1.27-4.928l4.386,2.588c2.031,1.195,4.613,0.866,6.278-0.8l4.282-4.282
						c1.666-1.667,1.994-4.25,0.797-6.281l-2.587-4.383l4.932-1.271c2.281-0.591,3.874-2.649,3.874-5.005V91.46
						c0-2.356-1.593-4.415-3.874-5.005c-0.001,0-0.002,0-0.003-0.001l-4.929-1.27l2.587-4.383c1.197-2.031,0.869-4.613-0.798-6.28
						l-4.28-4.281c-1.666-1.667-4.25-1.996-6.282-0.799l-4.383,2.586l-1.271-4.932c-0.592-2.28-2.649-3.873-5.005-3.873h-6.055
						c-2.356,0-4.415,1.593-5.006,3.876l-1.271,4.929l-4.386-2.589c-2.032-1.196-4.614-0.865-6.277,0.8l-4.281,4.281
						c-1.666,1.666-1.995,4.248-0.799,6.28l2.587,4.383l-4.931,1.271c-2.281,0.591-3.874,2.649-3.874,5.006v0.527h-15.533v-26.12
						C125.062,64.487,123.942,63.368,122.562,63.368z M120.062,195.777H57.876V68.368h62.186V195.777z M195.044,144.362
						c1.607,0,2.916,1.308,2.916,2.916v45.583c0,1.608-1.309,2.916-2.916,2.916h-45.582c-1.607,0-2.916-1.308-2.916-2.916v-45.583
						c0-1.608,1.309-2.916,2.916-2.916H195.044z M145.595,91.46c0-0.078,0.053-0.146,0.125-0.165l8.146-2.099
						c0.761-0.196,1.385-0.738,1.686-1.464c0.301-0.726,0.243-1.551-0.156-2.228l-4.275-7.243c-0.039-0.066-0.028-0.151,0.026-0.206
						l4.282-4.282c0.053-0.054,0.138-0.065,0.203-0.027l7.245,4.276c0.676,0.399,1.5,0.458,2.228,0.157
						c0.726-0.3,1.268-0.925,1.464-1.686l2.099-8.145c0.02-0.074,0.087-0.126,0.165-0.126h6.055c0.077,0,0.146,0.053,0.164,0.124
						l2.099,8.147c0.196,0.761,0.738,1.385,1.464,1.686c0.727,0.301,1.552,0.243,2.228-0.157l7.242-4.274
						c0.068-0.041,0.152-0.029,0.208,0.026l4.281,4.281c0.055,0.055,0.065,0.139,0.026,0.204l-4.275,7.245
						c-0.399,0.677-0.457,1.501-0.156,2.228c0.301,0.726,0.925,1.268,1.686,1.464l8.145,2.099c0.075,0.02,0.127,0.087,0.127,0.165
						v6.054c0,0.078-0.053,0.146-0.125,0.165l-8.146,2.099c-0.761,0.196-1.385,0.738-1.686,1.464
						c-0.301,0.726-0.243,1.551,0.156,2.228l4.275,7.244c0.039,0.066,0.028,0.151-0.026,0.206l-4.281,4.281
						c-0.056,0.054-0.14,0.065-0.205,0.027l-7.245-4.276c-0.677-0.4-1.502-0.458-2.228-0.157c-0.726,0.301-1.268,0.925-1.464,1.686
						l-2.098,8.143c-0.02,0.076-0.088,0.129-0.165,0.129h-6.055c-0.077,0-0.146-0.052-0.164-0.125l-2.1-8.147
						c-0.196-0.761-0.738-1.385-1.464-1.686c-0.308-0.127-0.633-0.19-0.957-0.19c-0.441,0-0.881,0.117-1.271,0.347l-7.242,4.274
						c-0.067,0.04-0.151,0.028-0.207-0.025l-4.28-4.281c-0.056-0.056-0.066-0.141-0.028-0.205l4.276-7.245
						c0.399-0.677,0.457-1.502,0.156-2.228c-0.301-0.726-0.925-1.269-1.686-1.464l-8.144-2.098
						c-0.075-0.019-0.128-0.087-0.128-0.165V91.46z"/>
				</g>
			</g>
		</g>
		<g>
			<g>
				<g>
					<path class="st1" d="M183.64,94.488c0-6.496-5.284-11.781-11.78-11.781s-11.781,5.285-11.781,11.781
						s5.285,11.781,11.781,11.781S183.64,100.984,183.64,94.488z M165.078,94.488c0-3.739,3.042-6.781,6.781-6.781
						c3.738,0,6.78,3.042,6.78,6.781s-3.042,6.781-6.78,6.781C168.12,101.269,165.078,98.227,165.078,94.488z"/>
				</g>
			</g>
		</g>
		<g>
			<g>
				<g>
					<path class="st1" d="M107.505,86.328c1.381,0,2.5-1.119,2.5-2.5s-1.119-2.5-2.5-2.5H70.433c-1.381,0-2.5,1.119-2.5,2.5
						s1.119,2.5,2.5,2.5H107.505z"/>
				</g>
			</g>
		</g>
		<g>
			<g>
				<g>
					<path class="st1" d="M107.505,101.389c1.381,0,2.5-1.119,2.5-2.5s-1.119-2.5-2.5-2.5H70.433c-1.381,0-2.5,1.119-2.5,2.5
						s1.119,2.5,2.5,2.5H107.505z"/>
				</g>
			</g>
		</g>
		<g>
			<g>
				<g>
					<path class="st1" d="M107.505,116.45c1.381,0,2.5-1.119,2.5-2.5s-1.119-2.5-2.5-2.5H70.433c-1.381,0-2.5,1.119-2.5,2.5
						s1.119,2.5,2.5,2.5H107.505z"/>
				</g>
			</g>
		</g>
		<g>
			<g>
				<g>
					<path class="st1" d="M100.806,170.816c0-6.527-5.31-11.837-11.837-11.837s-11.837,5.31-11.837,11.837
						c0,6.527,5.31,11.837,11.837,11.837S100.806,177.343,100.806,170.816z M82.132,170.816c0-3.77,3.067-6.837,6.837-6.837
						s6.837,3.067,6.837,6.837s-3.067,6.837-6.837,6.837S82.132,174.586,82.132,170.816z"/>
				</g>
			</g>
		</g>
		<g>
			<g>
				<g>
					<path class="st1" d="M98.306,152.775c1.381,0,2.5-1.119,2.5-2.5s-1.119-2.5-2.5-2.5H79.632c-1.381,0-2.5,1.119-2.5,2.5
						s1.119,2.5,2.5,2.5H98.306z"/>
				</g>
			</g>
		</g>
	</g>
	<g>
		<g>
			<g>
				<g>
					<path class="st4" d="M143.095,92.988c1.381,0,2.5-1.119,2.5-2.5s-1.119-2.5-2.5-2.5h-20.533c-1.381,0-2.5,1.119-2.5,2.5
						s1.119,2.5,2.5,2.5H143.095z"/>
				</g>
			</g>
		</g>
		<g>
			<g>
				<g>
					<g>
						<path class="st5" d="M143.095,92.988c1.381,0,2.5-1.119,2.5-2.5s-1.119-2.5-2.5-2.5h-20.533c-1.381,0-2.5,1.119-2.5,2.5
							s1.119,2.5,2.5,2.5H143.095z M121.562,90.488c0-0.551,0.449-1,1-1h20.533c0.551,0,1,0.449,1,1s-0.449,1-1,1h-20.533
							C122.01,91.488,121.562,91.039,121.562,90.488z"/>
					</g>
				</g>
			</g>
		</g>
		<g>
			<g>
				<g>
					<path class="st4" d="M174.359,137.862v-18.61c0-1.381-1.119-2.5-2.5-2.5s-2.5,1.119-2.5,2.5v18.61c0,1.381,1.119,2.5,2.5,2.5
						S174.359,139.243,174.359,137.862z"/>
				</g>
			</g>
		</g>
		<g>
			<g>
				<g>
					<g>
						<path class="st5" d="M174.359,137.862v-18.61c0-1.381-1.119-2.5-2.5-2.5s-2.5,1.119-2.5,2.5v18.61c0,1.381,1.119,2.5,2.5,2.5
							S174.359,139.243,174.359,137.862z M170.859,137.862v-18.61c0-0.551,0.449-1,1-1s1,0.449,1,1v18.61c0,0.551-0.449,1-1,1
							S170.859,138.414,170.859,137.862z"/>
					</g>
				</g>
			</g>
		</g>
		<g>
			<g>
				<g>
					<g>
						<path class="st6" d="M195.044,196.777c4.365,0,7.916-3.551,7.916-7.916v-45.583c0-4.365-3.551-7.916-7.916-7.916h-45.582
							c-4.365,0-7.916,3.551-7.916,7.916v45.583c0,4.365,3.551,7.916,7.916,7.916H195.044z M146.546,188.861v-45.583
							c0-1.608,1.309-2.916,2.916-2.916h45.582c1.607,0,2.916,1.308,2.916,2.916v45.583c0,1.608-1.309,2.916-2.916,2.916h-45.582
							C147.854,191.777,146.546,190.469,146.546,188.861z"/>
					</g>
				</g>
			</g>
			<g>
				<g>
					<g>
						<path class="st6" d="M172.253,155.062c1.381,0,2.5-1.119,2.5-2.5s-1.119-2.5-2.5-2.5h-12.979c-1.381,0-2.5,1.119-2.5,2.5
							s1.119,2.5,2.5,2.5H172.253z"/>
					</g>
				</g>
			</g>
			<g>
				<g>
					<g>
						<path class="st6" d="M185.23,168.57c1.381,0,2.5-1.119,2.5-2.5s-1.119-2.5-2.5-2.5h-25.956c-1.381,0-2.5,1.119-2.5,2.5
							s1.119,2.5,2.5,2.5H185.23z"/>
					</g>
				</g>
			</g>
			<g>
				<g>
					<g>
						<path class="st6" d="M185.23,182.077c1.381,0,2.5-1.119,2.5-2.5s-1.119-2.5-2.5-2.5h-25.956c-1.381,0-2.5,1.119-2.5,2.5
							s1.119,2.5,2.5,2.5H185.23z"/>
					</g>
				</g>
			</g>
		</g>
		<g>
			<g>
				<g>
					<g>
						<path class="st7" d="M195.044,196.777c4.365,0,7.916-3.551,7.916-7.916v-45.583c0-4.365-3.551-7.916-7.916-7.916h-45.582
							c-4.365,0-7.916,3.551-7.916,7.916v45.583c0,4.365,3.551,7.916,7.916,7.916H195.044z M143.046,188.861v-45.583
							c0-3.538,2.878-6.416,6.416-6.416h45.582c3.538,0,6.416,2.878,6.416,6.416v45.583c0,3.538-2.878,6.416-6.416,6.416h-45.582
							C145.924,195.277,143.046,192.399,143.046,188.861z"/>
						<path class="st7" d="M195.044,193.277c2.435,0,4.416-1.981,4.416-4.416v-45.583c0-2.435-1.981-4.416-4.416-4.416h-45.582
							c-2.435,0-4.416,1.981-4.416,4.416v45.583c0,2.435,1.981,4.416,4.416,4.416H195.044z M146.546,188.861v-45.583
							c0-1.608,1.309-2.916,2.916-2.916h45.582c1.607,0,2.916,1.308,2.916,2.916v45.583c0,1.608-1.309,2.916-2.916,2.916h-45.582
							C147.854,191.777,146.546,190.469,146.546,188.861z"/>
					</g>
				</g>
			</g>
			<g>
				<g>
					<g>
						<path class="st7" d="M172.253,155.062c1.381,0,2.5-1.119,2.5-2.5s-1.119-2.5-2.5-2.5h-12.979c-1.381,0-2.5,1.119-2.5,2.5
							s1.119,2.5,2.5,2.5H172.253z M158.274,152.562c0-0.551,0.449-1,1-1h12.979c0.551,0,1,0.449,1,1s-0.449,1-1,1h-12.979
							C158.723,153.562,158.274,153.113,158.274,152.562z"/>
					</g>
				</g>
			</g>
			<g>
				<g>
					<g>
						<path class="st7" d="M185.23,168.57c1.381,0,2.5-1.119,2.5-2.5s-1.119-2.5-2.5-2.5h-25.956c-1.381,0-2.5,1.119-2.5,2.5
							s1.119,2.5,2.5,2.5H185.23z M158.274,166.07c0-0.551,0.449-1,1-1h25.956c0.551,0,1,0.449,1,1s-0.449,1-1,1h-25.956
							C158.723,167.07,158.274,166.621,158.274,166.07z"/>
					</g>
				</g>
			</g>
			<g>
				<g>
					<g>
						<path class="st7" d="M185.23,182.077c1.381,0,2.5-1.119,2.5-2.5s-1.119-2.5-2.5-2.5h-25.956c-1.381,0-2.5,1.119-2.5,2.5
							s1.119,2.5,2.5,2.5H185.23z M158.274,179.577c0-0.551,0.449-1,1-1h25.956c0.551,0,1,0.449,1,1s-0.449,1-1,1h-25.956
							C158.723,180.577,158.274,180.129,158.274,179.577z"/>
					</g>
				</g>
			</g>
		</g>
		<g>
			<g>
				<g>
					<g>
						<g>
							<path class="st2" d="M140.595,87.46v6.054c0,2.356,1.593,4.415,3.877,5.006l4.928,1.27l-2.588,4.385
								c-1.195,2.03-0.866,4.612,0.8,6.279l4.281,4.281c1.664,1.666,4.247,1.996,6.28,0.798l4.383-2.587l1.271,4.931
								c0.59,2.282,2.648,3.875,5.005,3.875h6.055c2.354,0,4.413-1.593,5.006-3.877l1.27-4.928l4.386,2.588
								c2.031,1.196,4.613,0.866,6.278-0.8l4.282-4.282c1.666-1.667,1.994-4.25,0.797-6.281l-2.587-4.383l4.932-1.271
								c2.281-0.591,3.874-2.649,3.874-5.005V87.46c0-2.356-1.593-4.415-3.874-5.005c-0.001,0-0.002,0-0.003-0.001l-4.929-1.27
								l2.587-4.383c1.197-2.031,0.869-4.613-0.798-6.28l-4.28-4.281c-1.666-1.667-4.25-1.996-6.282-0.799l-4.383,2.586
								l-1.271-4.932c-0.592-2.28-2.649-3.873-5.005-3.873h-6.055c-2.356,0-4.415,1.593-5.006,3.876l-1.271,4.929l-4.386-2.589
								c-2.032-1.196-4.614-0.865-6.277,0.8l-4.281,4.281c-1.666,1.666-1.995,4.248-0.799,6.28l2.587,4.383l-4.931,1.271
								C142.188,83.045,140.595,85.104,140.595,87.46z M145.595,87.46c0-0.078,0.053-0.146,0.125-0.165l8.146-2.099
								c0.761-0.196,1.385-0.738,1.686-1.464c0.301-0.726,0.243-1.551-0.156-2.228l-4.275-7.243
								c-0.039-0.066-0.028-0.151,0.026-0.206l4.282-4.282c0.053-0.054,0.138-0.064,0.203-0.027l7.245,4.276
								c0.676,0.399,1.5,0.458,2.228,0.157c0.726-0.3,1.268-0.925,1.464-1.686l2.099-8.145c0.02-0.074,0.087-0.126,0.165-0.126
								h6.055c0.077,0,0.146,0.053,0.164,0.124l2.099,8.147c0.196,0.761,0.738,1.385,1.464,1.686
								c0.727,0.301,1.552,0.243,2.228-0.157l7.242-4.274c0.068-0.04,0.152-0.028,0.208,0.026l4.281,4.281
								c0.055,0.055,0.065,0.139,0.026,0.204l-4.275,7.245c-0.399,0.677-0.457,1.501-0.156,2.228
								c0.301,0.726,0.925,1.268,1.686,1.464l8.145,2.099c0.075,0.02,0.127,0.087,0.127,0.165v6.054
								c0,0.078-0.053,0.146-0.125,0.165l-8.146,2.099c-0.761,0.196-1.385,0.738-1.686,1.464c-0.301,0.726-0.243,1.551,0.156,2.228
								l4.275,7.244c0.039,0.066,0.028,0.151-0.026,0.206l-4.281,4.281c-0.056,0.054-0.14,0.065-0.205,0.027l-7.245-4.276
								c-0.677-0.4-1.502-0.458-2.228-0.157c-0.726,0.301-1.268,0.925-1.464,1.686l-2.098,8.143
								c-0.02,0.076-0.088,0.129-0.165,0.129h-6.055c-0.077,0-0.146-0.052-0.164-0.125l-2.1-8.147
								c-0.196-0.761-0.738-1.385-1.464-1.686c-0.308-0.127-0.633-0.19-0.957-0.19c-0.441,0-0.881,0.117-1.271,0.347l-7.242,4.274
								c-0.067,0.041-0.151,0.028-0.207-0.025l-4.28-4.281c-0.056-0.056-0.066-0.141-0.028-0.205l4.276-7.245
								c0.399-0.677,0.457-1.502,0.156-2.228c-0.301-0.726-0.925-1.269-1.686-1.464l-8.144-2.098
								c-0.075-0.019-0.128-0.087-0.128-0.165V87.46z"/>
						</g>
					</g>
				</g>
				<g>
					<g>
						<g>
							<path class="st4" d="M183.64,90.488c0-6.496-5.284-11.781-11.78-11.781s-11.781,5.285-11.781,11.781
								s5.285,11.781,11.781,11.781S183.64,96.984,183.64,90.488z M165.078,90.488c0-3.739,3.042-6.781,6.781-6.781
								c3.738,0,6.78,3.042,6.78,6.781s-3.042,6.781-6.78,6.781C168.12,97.269,165.078,94.227,165.078,90.488z"/>
						</g>
					</g>
				</g>
			</g>
		</g>
		<g>
			<g>
				<g>
					<g>
						<path class="st2" d="M122.562,196.777c1.381,0,2.5-1.119,2.5-2.5V61.868c0-1.381-1.119-2.5-2.5-2.5H55.376
							c-1.381,0-2.5,1.119-2.5,2.5v132.409c0,1.381,1.119,2.5,2.5,2.5H122.562z M57.876,64.368h62.186v127.409H57.876V64.368z"/>
					</g>
				</g>
			</g>
			<g>
				<g>
					<g>
						<path class="st2" d="M107.505,82.328c1.381,0,2.5-1.119,2.5-2.5s-1.119-2.5-2.5-2.5H70.433c-1.381,0-2.5,1.119-2.5,2.5
							s1.119,2.5,2.5,2.5H107.505z"/>
					</g>
				</g>
			</g>
			<g>
				<g>
					<g>
						<path class="st2" d="M107.505,97.389c1.381,0,2.5-1.119,2.5-2.5s-1.119-2.5-2.5-2.5H70.433c-1.381,0-2.5,1.119-2.5,2.5
							s1.119,2.5,2.5,2.5H107.505z"/>
					</g>
				</g>
			</g>
			<g>
				<g>
					<g>
						<path class="st2" d="M107.505,112.45c1.381,0,2.5-1.119,2.5-2.5s-1.119-2.5-2.5-2.5H70.433c-1.381,0-2.5,1.119-2.5,2.5
							s1.119,2.5,2.5,2.5H107.505z"/>
					</g>
				</g>
			</g>
			<g>
				<g>
					<g>
						<path class="st4" d="M100.806,166.816c0-6.527-5.31-11.837-11.837-11.837s-11.837,5.31-11.837,11.837
							c0,6.527,5.31,11.837,11.837,11.837S100.806,173.343,100.806,166.816z M82.132,166.816c0-3.77,3.067-6.837,6.837-6.837
							s6.837,3.067,6.837,6.837s-3.067,6.837-6.837,6.837S82.132,170.586,82.132,166.816z"/>
					</g>
				</g>
			</g>
			<g>
				<g>
					<g>
						<path class="st2" d="M98.306,148.775c1.381,0,2.5-1.119,2.5-2.5s-1.119-2.5-2.5-2.5H79.632c-1.381,0-2.5,1.119-2.5,2.5
							s1.119,2.5,2.5,2.5H98.306z"/>
					</g>
				</g>
			</g>
		</g>
		<g>
			<g>
				<g>
					<g>
						<path class="st3" d="M145.348,95.132l8.144,2.098c0.302,0.078,0.554,0.297,0.674,0.586c0.12,0.289,0.096,0.622-0.062,0.891
							l-4.273,7.24c-0.39,0.656-0.285,1.492,0.256,2.033l4.299,4.299c0.314,0.303,0.727,0.47,1.162,0.47
							c0.303,0,0.6-0.083,0.849-0.232l7.243-4.275c0.153-0.09,0.328-0.138,0.507-0.138c0.132,0,0.261,0.026,0.383,0.076
							c0.288,0.119,0.507,0.371,0.585,0.674l2.099,8.144c0.188,0.738,0.854,1.254,1.617,1.254h6.055
							c0.762,0,1.427-0.516,1.618-1.255l2.097-8.142c0.078-0.303,0.297-0.555,0.587-0.675c0.122-0.051,0.25-0.076,0.382-0.076
							c0.178,0,0.353,0.048,0.508,0.139l7.26,4.285c0.252,0.145,0.54,0.222,0.831,0.222c0.439,0,0.853-0.169,1.182-0.489
							l4.281-4.281c0.538-0.538,0.644-1.372,0.257-2.029l-4.275-7.244c-0.159-0.269-0.182-0.602-0.062-0.891
							c0.12-0.289,0.372-0.508,0.674-0.586l8.146-2.098c0.737-0.189,1.252-0.854,1.252-1.617V87.46c0-0.756-0.51-1.42-1.253-1.618
							l-8.145-2.099c-0.302-0.078-0.554-0.297-0.674-0.585c-0.12-0.289-0.096-0.622,0.062-0.891l4.271-7.239
							c0.392-0.656,0.287-1.493-0.254-2.034l-4.296-4.295c-0.315-0.306-0.729-0.475-1.167-0.475c-0.297,0-0.589,0.079-0.849,0.232
							l-7.244,4.275c-0.153,0.091-0.328,0.138-0.506,0.138c-0.132,0-0.261-0.026-0.383-0.076c-0.289-0.12-0.508-0.372-0.586-0.675
							l-2.1-8.151c-0.191-0.734-0.855-1.246-1.616-1.246h-6.055c-0.758,0-1.423,0.512-1.618,1.252l-2.099,8.145
							c-0.078,0.303-0.297,0.555-0.585,0.674c-0.123,0.051-0.252,0.077-0.385,0.077c-0.178,0-0.353-0.048-0.507-0.139l-7.267-4.289
							c-0.251-0.142-0.536-0.217-0.824-0.217c-0.445,0-0.879,0.182-1.18,0.489L150.081,73c-0.533,0.538-0.638,1.37-0.253,2.025
							l4.275,7.243c0.159,0.269,0.182,0.602,0.062,0.891s-0.372,0.508-0.674,0.586l-8.145,2.099
							c-0.737,0.189-1.252,0.854-1.252,1.617v6.054C144.095,94.28,144.613,94.946,145.348,95.132z M145.595,87.46
							c0-0.078,0.053-0.146,0.125-0.165l8.146-2.099c0.761-0.196,1.385-0.738,1.686-1.464c0.301-0.726,0.243-1.551-0.156-2.228
							l-4.275-7.243c-0.039-0.066-0.028-0.151,0.026-0.206l4.282-4.282c0.032-0.032,0.075-0.049,0.12-0.049
							c0.029,0,0.058,0.007,0.084,0.022l7.245,4.276c0.39,0.23,0.829,0.347,1.27,0.347c0.324,0,0.65-0.063,0.958-0.19
							c0.726-0.3,1.268-0.925,1.464-1.686l2.099-8.145c0.02-0.074,0.087-0.126,0.165-0.126h6.055c0.077,0,0.146,0.053,0.164,0.124
							l2.099,8.147c0.196,0.761,0.738,1.385,1.464,1.686c0.308,0.128,0.633,0.191,0.957,0.191c0.441,0,0.881-0.117,1.27-0.347
							l7.242-4.274c0.027-0.016,0.057-0.024,0.087-0.024c0.044,0,0.088,0.017,0.121,0.05l4.281,4.281
							c0.055,0.055,0.065,0.139,0.026,0.204l-4.275,7.245c-0.399,0.677-0.457,1.501-0.156,2.228
							c0.301,0.726,0.925,1.268,1.686,1.464l8.145,2.099c0.075,0.02,0.127,0.087,0.127,0.165v6.054c0,0.078-0.053,0.146-0.125,0.165
							l-8.146,2.099c-0.761,0.196-1.385,0.738-1.686,1.464c-0.301,0.726-0.243,1.551,0.156,2.228l4.275,7.244
							c0.039,0.066,0.028,0.151-0.026,0.206l-4.281,4.281c-0.034,0.033-0.078,0.05-0.121,0.05c-0.029,0-0.058-0.007-0.084-0.022
							l-7.245-4.276c-0.39-0.231-0.829-0.348-1.27-0.348c-0.324,0-0.65,0.063-0.957,0.191c-0.726,0.301-1.268,0.925-1.464,1.686
							l-2.098,8.143c-0.02,0.076-0.088,0.129-0.165,0.129h-6.055c-0.077,0-0.146-0.052-0.164-0.125l-2.1-8.147
							c-0.196-0.761-0.738-1.385-1.464-1.686c-0.308-0.127-0.633-0.19-0.957-0.19c-0.441,0-0.881,0.117-1.271,0.347l-7.242,4.274
							c-0.027,0.016-0.057,0.024-0.086,0.024c-0.044,0-0.087-0.017-0.121-0.049l-4.28-4.281c-0.056-0.056-0.066-0.141-0.028-0.205
							l4.276-7.245c0.399-0.677,0.457-1.502,0.156-2.228c-0.301-0.726-0.925-1.269-1.686-1.464l-8.144-2.098
							c-0.075-0.019-0.128-0.087-0.128-0.165V87.46z"/>
						<path class="st3" d="M140.595,87.46v6.054c0,2.356,1.593,4.415,3.877,5.006l4.928,1.27l-2.588,4.385
							c-1.195,2.03-0.866,4.612,0.8,6.279l4.281,4.281c0.995,0.996,2.318,1.514,3.656,1.514c0.9,0,1.807-0.235,2.625-0.717
							l4.383-2.587l1.271,4.931c0.59,2.282,2.648,3.875,5.005,3.875h6.055c2.354,0,4.413-1.593,5.006-3.877l1.27-4.928l4.386,2.588
							c0.816,0.481,1.722,0.715,2.621,0.715c1.338,0,2.661-0.518,3.657-1.515l4.282-4.282c1.666-1.667,1.994-4.25,0.797-6.281
							l-2.587-4.383l4.932-1.271c2.281-0.591,3.874-2.649,3.874-5.005V87.46c0-2.356-1.593-4.415-3.874-5.005
							c-0.001,0-0.002,0-0.003-0.001l-4.929-1.27l2.587-4.383c1.197-2.031,0.869-4.613-0.798-6.28l-4.28-4.281
							c-0.996-0.997-2.32-1.515-3.658-1.515c-0.901,0-1.807,0.235-2.625,0.716l-4.383,2.586l-1.271-4.932
							c-0.592-2.28-2.649-3.873-5.005-3.873h-6.055c-2.356,0-4.415,1.593-5.006,3.876l-1.271,4.929l-4.386-2.589
							c-0.817-0.481-1.722-0.715-2.621-0.715c-1.338,0-2.662,0.519-3.657,1.515l-4.281,4.281c-1.666,1.666-1.995,4.248-0.799,6.28
							l2.587,4.383l-4.931,1.271C142.188,83.045,140.595,85.104,140.595,87.46z M149.774,82.637
							c0.457-0.118,0.831-0.443,1.012-0.879c0.18-0.436,0.146-0.931-0.094-1.336l-2.586-4.381c-0.849-1.443-0.616-3.276,0.567-4.459
							l4.282-4.282c0.692-0.693,1.614-1.075,2.595-1.075c0.653,0,1.296,0.175,1.858,0.507l4.386,2.589
							c0.234,0.138,0.498,0.208,0.763,0.208c0.194,0,0.389-0.038,0.574-0.114c0.435-0.18,0.761-0.555,0.879-1.011l1.27-4.927
							c0.419-1.62,1.881-2.752,3.554-2.752h6.055c1.672,0,3.133,1.131,3.552,2.747l1.271,4.932c0.118,0.457,0.443,0.831,0.879,1.012
							c0.184,0.076,0.38,0.114,0.574,0.114c0.265,0,0.528-0.07,0.762-0.208l4.382-2.586c0.565-0.333,1.209-0.509,1.863-0.509
							c0.982,0,1.904,0.382,2.597,1.076l4.28,4.281c1.183,1.183,1.416,3.016,0.567,4.457l-2.587,4.383
							c-0.24,0.406-0.274,0.901-0.094,1.336c0.18,0.436,0.555,0.761,1.012,0.879l4.907,1.264c0.008,0.002,0.015,0.004,0.023,0.006
							c1.619,0.419,2.75,1.881,2.75,3.553v6.054c0,1.673-1.131,3.134-2.748,3.553l-4.932,1.271
							c-0.456,0.118-0.831,0.443-1.012,0.879c-0.18,0.435-0.146,0.931,0.094,1.336l2.586,4.382c0.85,1.442,0.617,3.275-0.565,4.458
							l-4.283,4.282c-0.693,0.693-1.615,1.075-2.596,1.075c-0.653,0-1.296-0.176-1.859-0.507l-4.386-2.588
							c-0.234-0.138-0.498-0.208-0.763-0.208c-0.194,0-0.39,0.038-0.574,0.114c-0.436,0.18-0.761,0.555-0.878,1.012l-1.269,4.925
							c-0.421,1.622-1.882,2.754-3.554,2.754h-6.055c-1.673,0-3.134-1.131-3.552-2.75l-1.271-4.931
							c-0.118-0.456-0.443-0.831-0.879-1.011c-0.184-0.076-0.379-0.114-0.574-0.114c-0.265,0-0.529,0.07-0.763,0.208l-4.382,2.586
							c-0.565,0.333-1.209,0.509-1.863,0.509c-0.981,0-1.902-0.382-2.595-1.075l-4.281-4.281c-1.183-1.183-1.417-3.016-0.569-4.456
							l2.588-4.385c0.24-0.406,0.274-0.901,0.094-1.336c-0.18-0.436-0.555-0.761-1.011-0.878l-4.926-1.269
							c-1.621-0.42-2.753-1.881-2.753-3.554V87.46c0-1.673,1.131-3.134,2.748-3.553L149.774,82.637z"/>
					</g>
				</g>
			</g>
			<g>
				<g>
					<g>
						<path class="st3" d="M122.562,196.777c1.381,0,2.5-1.119,2.5-2.5V61.868c0-1.381-1.119-2.5-2.5-2.5H55.376
							c-1.381,0-2.5,1.119-2.5,2.5v132.409c0,1.381,1.119,2.5,2.5,2.5H122.562z M54.376,194.277V61.868c0-0.551,0.449-1,1-1h67.186
							c0.551,0,1,0.449,1,1v132.409c0,0.551-0.449,1-1,1H55.376C54.825,195.277,54.376,194.828,54.376,194.277z"/>
						<path class="st3" d="M57.876,193.277h62.186c0.828,0,1.5-0.672,1.5-1.5V64.368c0-0.828-0.672-1.5-1.5-1.5H57.876
							c-0.828,0-1.5,0.672-1.5,1.5v127.409C56.376,192.605,57.047,193.277,57.876,193.277z M57.876,64.368h62.186v127.409H57.876
							V64.368z"/>
					</g>
				</g>
			</g>
			<g>
				<g>
					<g>
						<path class="st3" d="M107.505,82.328c1.381,0,2.5-1.119,2.5-2.5s-1.119-2.5-2.5-2.5H70.433c-1.381,0-2.5,1.119-2.5,2.5
							s1.119,2.5,2.5,2.5H107.505z M69.433,79.828c0-0.551,0.449-1,1-1h37.072c0.551,0,1,0.449,1,1s-0.449,1-1,1H70.433
							C69.881,80.828,69.433,80.38,69.433,79.828z"/>
					</g>
				</g>
			</g>
			<g>
				<g>
					<g>
						<path class="st3" d="M107.505,97.389c1.381,0,2.5-1.119,2.5-2.5s-1.119-2.5-2.5-2.5H70.433c-1.381,0-2.5,1.119-2.5,2.5
							s1.119,2.5,2.5,2.5H107.505z M69.433,94.889c0-0.551,0.449-1,1-1h37.072c0.551,0,1,0.449,1,1s-0.449,1-1,1H70.433
							C69.881,95.889,69.433,95.441,69.433,94.889z"/>
					</g>
				</g>
			</g>
			<g>
				<g>
					<g>
						<path class="st3" d="M107.505,112.45c1.381,0,2.5-1.119,2.5-2.5s-1.119-2.5-2.5-2.5H70.433c-1.381,0-2.5,1.119-2.5,2.5
							s1.119,2.5,2.5,2.5H107.505z M69.433,109.95c0-0.551,0.449-1,1-1h37.072c0.551,0,1,0.449,1,1s-0.449,1-1,1H70.433
							C69.881,110.95,69.433,110.501,69.433,109.95z"/>
					</g>
				</g>
			</g>
			<g>
				<g>
					<g>
						<path class="st3" d="M98.306,148.775c1.381,0,2.5-1.119,2.5-2.5s-1.119-2.5-2.5-2.5H79.632c-1.381,0-2.5,1.119-2.5,2.5
							s1.119,2.5,2.5,2.5H98.306z M78.632,146.275c0-0.551,0.449-1,1-1h18.674c0.551,0,1,0.449,1,1s-0.449,1-1,1H79.632
							C79.08,147.275,78.632,146.826,78.632,146.275z"/>
					</g>
				</g>
			</g>
		</g>
		<g>
			<g>
				<g>
					<g>
						<path class="st5" d="M180.14,90.488c0-4.566-3.714-8.281-8.28-8.281c-4.566,0-8.281,3.715-8.281,8.281
							s3.715,8.281,8.281,8.281C176.425,98.769,180.14,95.054,180.14,90.488z M165.078,90.488c0-3.739,3.042-6.781,6.781-6.781
							c3.738,0,6.78,3.042,6.78,6.781s-3.042,6.781-6.78,6.781C168.12,97.269,165.078,94.227,165.078,90.488z"/>
						<path class="st5" d="M183.64,90.488c0-6.496-5.284-11.781-11.78-11.781s-11.781,5.285-11.781,11.781
							s5.285,11.781,11.781,11.781S183.64,96.984,183.64,90.488z M161.578,90.488c0-5.669,4.612-10.281,10.281-10.281
							c5.669,0,10.28,4.612,10.28,10.281s-4.612,10.281-10.28,10.281C166.19,100.769,161.578,96.157,161.578,90.488z"/>
					</g>
				</g>
			</g>
		</g>
		<g>
			<g>
				<g>
					<g>
						<path class="st5" d="M100.806,166.816c0-6.527-5.31-11.837-11.837-11.837s-11.837,5.31-11.837,11.837
							c0,6.527,5.31,11.837,11.837,11.837S100.806,173.343,100.806,166.816z M78.632,166.816c0-5.7,4.637-10.337,10.337-10.337
							s10.337,4.637,10.337,10.337c0,5.7-4.637,10.337-10.337,10.337S78.632,172.516,78.632,166.816z"/>
						<path class="st5" d="M97.306,166.816c0-4.597-3.74-8.337-8.337-8.337s-8.337,3.74-8.337,8.337c0,4.597,3.74,8.337,8.337,8.337
							S97.306,171.413,97.306,166.816z M82.132,166.816c0-3.77,3.067-6.837,6.837-6.837s6.837,3.067,6.837,6.837
							s-3.067,6.837-6.837,6.837S82.132,170.586,82.132,166.816z"/>
					</g>
				</g>
			</g>
		</g>
	</g>
</g>
</svg>
