<svg width="661" height="177" viewBox="0 0 661 177" fill="none" xmlns="http://www.w3.org/2000/svg">
<g filter="url(#filter0_d_91_99)">
<path d="M56.0366 23.6181L126.699 103.113V22.082H128.619V125.771H126.699V105.993L54.1164 24.5782C53.9884 24.4502 53.7964 24.3222 53.5404 24.1941C53.4124 24.0661 53.2844 24.0021 53.1563 24.0021C53.0283 24.0021 52.9003 24.0661 52.7723 24.1941C52.7723 24.3222 52.7723 24.4502 52.7723 24.5782V125.771H50.8521V24.1941C50.8521 23.4261 51.1082 22.85 51.6202 22.466C52.1323 22.082 52.6443 21.8899 53.1563 21.8899C53.6684 21.8899 54.1164 22.0179 54.5005 22.274C54.8845 22.53 55.3965 22.978 56.0366 23.6181ZM66.4055 143.053C68.8377 143.053 70.5659 142.541 71.59 141.516C72.7421 140.364 73.3181 138.572 73.3181 136.14V72.7744L106.153 112.522V136.14C106.153 138.572 106.665 140.364 107.689 141.516C108.841 142.541 110.633 143.053 113.066 143.053H141.868C144.3 143.053 146.029 142.541 147.053 141.516C148.205 140.364 148.781 138.572 148.781 136.14V11.713C148.781 9.28083 148.205 7.55268 147.053 6.52859C146.029 5.37648 144.3 4.80043 141.868 4.80043H113.066C110.633 4.80043 108.841 5.37648 107.689 6.52859C106.665 7.55268 106.153 9.28083 106.153 11.713V52.6126L68.9017 9.98489C67.2376 8.06473 65.5094 6.72061 63.7173 5.95253C62.0531 5.18447 60.0049 4.80043 57.5727 4.80043H37.603C35.1708 4.80043 33.3786 5.37648 32.2265 6.52859C31.2024 7.55268 30.6904 9.28083 30.6904 11.713V136.14C30.6904 138.572 31.2024 140.364 32.2265 141.516C33.3786 142.541 35.1708 143.053 37.603 143.053H66.4055ZM72.5501 143.245L47.5879 163.982C47.0758 164.495 46.2437 164.943 45.0916 165.327C44.0675 165.711 42.9154 165.903 41.6353 165.903H12.8328C9.76052 165.903 7.52032 165.199 6.1122 163.79C4.70408 162.382 4.00001 160.142 4.00001 157.07V32.6429C4.00001 30.9787 4.19203 29.5706 4.57606 28.4185C5.08811 27.2664 5.79217 26.3063 6.68825 25.5383L31.4584 4.60842C32.0985 4.09637 32.9306 3.71234 33.9547 3.45631C35.1068 3.07228 36.3229 2.88027 37.603 2.88027H57.5727C60.389 2.88027 62.7572 3.3283 64.6774 4.22438C66.5975 5.12046 68.5177 6.59259 70.4379 8.64077L83.687 24.0021L106.921 4.60842C107.561 4.09637 108.393 3.71234 109.417 3.45631C110.569 3.07228 111.786 2.88027 113.066 2.88027H141.868C144.94 2.88027 147.181 3.58433 148.589 4.99245C149.997 6.40058 150.701 8.64078 150.701 11.713V136.14C150.701 137.804 150.445 139.212 149.933 140.364C149.549 141.516 148.909 142.477 148.013 143.245L123.051 163.982C122.538 164.495 121.706 164.943 120.554 165.327C119.53 165.711 118.378 165.903 117.098 165.903H88.2954C85.2232 165.903 82.983 165.199 81.5748 163.79C80.1667 162.382 79.4627 160.142 79.4627 157.07V134.22L75.2383 129.035V136.14C75.2383 137.804 74.9823 139.212 74.4702 140.364C74.0862 141.516 73.4461 142.477 72.5501 143.245ZM285.152 156.686C280.672 160.526 274.399 163.47 266.335 165.519C258.27 167.695 247.901 168.783 235.228 168.783C222.683 168.783 212.378 167.439 204.313 164.751C196.376 162.19 190.104 158.734 185.495 154.382C181.015 150.029 177.879 145.037 176.087 139.404C174.423 133.772 173.59 127.947 173.59 121.931V62.2135C173.59 56.325 174.423 50.8845 176.087 45.892C177.751 40.7716 180.759 36.4192 185.111 32.8349L210.074 12.0971C214.554 8.25674 220.763 5.31248 228.699 3.2643C236.764 1.0881 247.197 4.42396e-06 259.998 4.42396e-06C272.543 4.42396e-06 282.784 1.0241 290.721 3.07228C298.785 5.12046 305.058 8.00071 309.538 11.713C314.147 15.2974 317.283 19.6497 318.947 24.7702C320.611 29.7626 321.443 35.2671 321.443 41.2836V106.761C321.443 112.65 320.611 118.09 318.947 123.083C317.283 128.075 314.275 132.364 309.922 135.948L285.152 156.686ZM319.523 106.761V41.2836C319.523 35.3951 318.627 30.0827 316.835 25.3462C315.171 20.4818 312.099 16.3214 307.618 12.8651C303.266 9.40884 297.185 6.7206 289.377 4.80043C281.696 2.88027 271.903 1.92018 259.998 1.92018C248.093 1.92018 238.236 2.88027 230.427 4.80043C222.619 6.7206 216.474 9.40884 211.994 12.8651C207.641 16.3214 204.569 20.4818 202.777 25.3462C201.113 30.0827 200.281 35.3951 200.281 41.2836V106.761C200.281 112.65 201.113 118.026 202.777 122.891C204.569 127.627 207.641 131.724 211.994 135.18C216.474 138.508 222.619 141.132 230.427 143.053C238.236 144.973 248.093 145.933 259.998 145.933C271.903 145.933 281.696 144.973 289.377 143.053C297.185 141.132 303.266 138.508 307.618 135.18C312.099 131.724 315.171 127.627 316.835 122.891C318.627 118.026 319.523 112.65 319.523 106.761ZM298.593 102.345C298.593 110.026 295.841 116.298 290.337 121.163C284.832 125.899 274.591 128.267 259.614 128.267C244.637 128.267 234.46 125.899 229.083 121.163C223.707 116.298 221.019 110.026 221.019 102.345V45.7C221.019 38.0194 223.707 31.8108 229.083 27.0744C234.46 22.21 244.637 19.7778 259.614 19.7778C274.591 19.7778 284.832 22.21 290.337 27.0744C295.841 31.8108 298.593 38.0194 298.593 45.7V102.345ZM222.939 102.345C222.939 109.514 225.499 115.338 230.619 119.819C235.74 124.171 245.405 126.347 259.614 126.347C273.823 126.347 283.552 124.171 288.801 119.819C294.049 115.338 296.673 109.514 296.673 102.345V45.7C296.673 38.5314 294.049 32.7709 288.801 28.4185C283.552 23.9381 273.823 21.6979 259.614 21.6979C245.405 21.6979 235.74 23.9381 230.619 28.4185C225.499 32.7709 222.939 38.5314 222.939 45.7V102.345ZM243.869 99.8488V48.1963C243.869 45.764 244.829 43.7159 246.749 42.0517C248.669 40.2596 253.085 39.3635 259.998 39.3635C266.911 39.3635 271.327 40.2596 273.247 42.0517C275.167 43.7159 276.127 45.764 276.127 48.1963V99.8488C276.127 102.409 275.167 104.585 273.247 106.377C271.327 108.042 266.911 108.874 259.998 108.874C253.085 108.874 248.669 108.042 246.749 106.377C244.829 104.585 243.869 102.409 243.869 99.8488ZM245.789 99.8488C245.789 101.129 246.045 102.281 246.557 103.305C247.069 104.201 248.029 104.969 249.437 105.609V69.1261C249.437 67.846 249.181 66.7579 248.669 65.8618C248.157 64.8377 247.197 64.0697 245.789 63.5576V99.8488ZM454.815 155.726C450.846 159.054 445.79 161.55 439.645 163.214C433.501 165.007 426.268 165.903 417.947 165.903H353.238C350.165 165.903 347.925 165.199 346.517 163.79C345.109 162.382 344.405 160.142 344.405 157.07V32.6429C344.405 30.9787 344.597 29.5706 344.981 28.4185C345.493 27.2664 346.197 26.3063 347.093 25.5383L371.863 4.60842C372.503 4.09637 373.336 3.71234 374.36 3.45631C375.512 3.07228 376.728 2.88027 378.008 2.88027H442.718C459.487 2.88027 471.84 6.27256 479.777 13.0572C487.842 19.8418 491.874 30.1467 491.874 43.9719V103.881C491.874 110.794 490.85 116.874 488.802 122.123C486.754 127.243 483.745 131.532 479.777 134.988L454.815 155.726ZM442.718 143.053C458.719 143.053 470.56 139.852 478.241 133.452C486.049 127.051 489.954 117.194 489.954 103.881V43.9719C489.954 30.6587 486.049 20.8018 478.241 14.4013C470.56 8.00072 458.719 4.80043 442.718 4.80043H378.008C375.576 4.80043 373.784 5.37648 372.631 6.52859C371.607 7.55268 371.095 9.28083 371.095 11.713V136.14C371.095 138.572 371.607 140.364 372.631 141.516C373.784 142.541 375.576 143.053 378.008 143.053H442.718ZM392.025 125.771V22.082H438.493C445.022 22.082 450.27 22.786 454.239 24.1941C458.335 25.6023 461.471 27.5224 463.647 29.9546C465.824 32.2588 467.296 35.0751 468.064 38.4034C468.832 41.6037 469.216 45.06 469.216 48.7723V99.6568C469.216 103.369 468.832 106.825 468.064 110.026C467.424 113.226 466.016 115.978 463.84 118.282C461.663 120.587 458.527 122.443 454.431 123.851C450.334 125.131 445.022 125.771 438.493 125.771H392.025ZM438.493 24.0021H393.945V123.851H438.493C444.638 123.851 449.566 123.275 453.279 122.123C457.119 120.843 460.063 119.179 462.111 117.13C464.16 114.954 465.504 112.394 466.144 109.45C466.912 106.377 467.296 103.113 467.296 99.6568V48.7723C467.296 45.316 466.912 42.0517 466.144 38.9794C465.376 35.9072 463.968 33.2829 461.919 31.1068C459.871 28.9306 456.927 27.2024 453.087 25.9223C449.374 24.6422 444.51 24.0021 438.493 24.0021ZM414.683 41.4757H437.533C440.605 41.4757 442.846 42.2437 444.254 43.7799C445.79 45.188 446.558 47.4922 446.558 50.6925V97.3526C446.558 100.553 445.79 102.921 444.254 104.457C442.846 105.993 440.605 106.761 437.533 106.761H414.683V41.4757ZM419.868 71.6223C419.868 69.9582 419.612 68.55 419.1 67.3979C418.588 66.2458 417.755 65.4138 416.603 64.9017V104.841H419.868V71.6223ZM586.801 165.903H555.695C552.494 165.903 550.19 165.199 548.782 163.79C547.502 162.382 546.862 160.142 546.862 157.07V133.068L517.867 94.2803C514.795 90.184 512.747 86.5996 511.723 83.5274C510.699 80.4551 510.187 75.7827 510.187 69.5101V32.6429C510.187 30.9787 510.379 29.5706 510.763 28.4185C511.275 27.2664 511.979 26.3063 512.875 25.5383L537.645 4.60842C538.285 4.09637 539.117 3.71234 540.141 3.45631C541.293 3.07228 542.509 2.88027 543.79 2.88027H573.36C576.432 2.88027 578.673 3.58433 580.081 4.99245C581.489 6.40058 582.193 8.64078 582.193 11.713V43.2038C582.193 44.3559 582.257 45.508 582.385 46.6601C582.513 47.8122 582.897 49.0283 583.537 50.3084L585.841 53.5727V32.6429C585.841 30.9787 586.033 29.5706 586.417 28.4185C586.929 27.2664 587.633 26.3063 588.529 25.5383L613.3 4.60842C613.94 4.09637 614.772 3.71234 615.796 3.45631C616.948 3.07228 618.164 2.88027 619.444 2.88027H648.055C651.127 2.88027 653.367 3.58433 654.775 4.99245C656.183 6.40058 656.888 8.64078 656.888 11.713V48.5803C656.888 54.8528 656.375 59.5253 655.351 62.5975C654.327 65.6698 652.279 69.2541 649.207 73.3505L620.404 112.33V136.14C620.404 137.804 620.148 139.212 619.636 140.364C619.252 141.516 618.612 142.477 617.716 143.245L592.754 163.982C592.242 164.495 591.41 164.943 590.258 165.327C589.234 165.711 588.081 165.903 586.801 165.903ZM611.572 143.053C614.004 143.053 615.732 142.541 616.756 141.516C617.908 140.364 618.484 138.572 618.484 136.14V111.754L647.671 72.1984C650.487 68.23 652.407 64.7737 653.431 61.8295C654.455 58.8852 654.967 54.4688 654.967 48.5803V11.713C654.967 9.28083 654.391 7.55268 653.239 6.52859C652.215 5.37648 650.487 4.80043 648.055 4.80043H619.444C617.012 4.80043 615.22 5.37648 614.068 6.52859C613.044 7.55268 612.532 9.28083 612.532 11.713V43.2038C612.532 44.4839 612.468 45.828 612.34 47.2362C612.212 48.6443 611.7 49.9884 610.803 51.2685L601.971 65.0937C601.331 66.2458 600.627 67.0779 599.858 67.59C599.218 68.102 598.386 68.358 597.362 68.358H595.442C594.418 68.358 593.522 68.102 592.754 67.59C592.114 67.0779 591.474 66.2458 590.834 65.0937L582.001 51.2685C581.105 49.9884 580.593 48.6443 580.465 47.2362C580.337 45.828 580.273 44.4839 580.273 43.2038V11.713C580.273 9.28083 579.697 7.55268 578.545 6.52859C577.521 5.37648 575.792 4.80043 573.36 4.80043H543.79C541.357 4.80043 539.565 5.37648 538.413 6.52859C537.389 7.55268 536.877 9.28083 536.877 11.713V48.5803C536.877 54.4688 537.325 58.8852 538.221 61.8295C539.245 64.7737 541.229 68.23 544.174 72.1984L573.552 111.562V136.14C573.552 138.572 574.064 140.364 575.088 141.516C576.24 142.541 578.033 143.053 580.465 143.053H611.572ZM598.322 92.9362H596.978V125.771H595.058V92.9362H593.138C590.322 92.9362 587.761 92.2961 585.457 91.016C583.281 89.7359 581.169 87.6877 579.121 84.8715L560.495 58.9492C559.087 57.029 558.255 54.7888 557.999 52.2286C557.743 49.6684 557.615 46.9801 557.615 44.1639V22.082H559.535V44.1639C559.535 46.8521 559.663 49.4124 559.919 51.8446C560.175 54.1488 560.943 56.261 562.223 58.1811L580.849 84.1034C582.513 86.6636 584.433 88.4558 586.609 89.4799C588.786 90.504 590.962 91.016 593.138 91.016H598.322C600.755 91.016 602.931 90.504 604.851 89.4799C606.899 88.3278 608.883 86.5356 610.803 84.1034L630.005 58.1811C631.285 56.517 632.053 54.4688 632.309 52.0366C632.565 49.4764 632.693 46.8521 632.693 44.1639V22.082H634.614V44.1639C634.614 46.9801 634.486 49.6684 634.23 52.2286C634.102 54.6608 633.269 56.901 631.733 58.9492L612.532 84.8715C610.483 87.6877 608.307 89.7359 606.003 91.016C603.827 92.2961 601.267 92.9362 598.322 92.9362Z" fill="white"/>
</g>
<defs>
<filter id="filter0_d_91_99" x="0" y="0" width="660.888" height="176.783" filterUnits="userSpaceOnUse" color-interpolation-filters="sRGB">
<feFlood flood-opacity="0" result="BackgroundImageFix"/>
<feColorMatrix in="SourceAlpha" type="matrix" values="0 0 0 0 0 0 0 0 0 0 0 0 0 0 0 0 0 0 127 0" result="hardAlpha"/>
<feOffset dy="4"/>
<feGaussianBlur stdDeviation="2"/>
<feComposite in2="hardAlpha" operator="out"/>
<feColorMatrix type="matrix" values="0 0 0 0 0 0 0 0 0 0 0 0 0 0 0 0 0 0 0.25 0"/>
<feBlend mode="normal" in2="BackgroundImageFix" result="effect1_dropShadow_91_99"/>
<feBlend mode="normal" in="SourceGraphic" in2="effect1_dropShadow_91_99" result="shape"/>
</filter>
</defs>
</svg>
